<?xml version="1.0" encoding="UTF-8"?>
<svg id="Layer_1" xmlns="http://www.w3.org/2000/svg" version="1.1" viewBox="0 0 531.1 277.4">
  <!-- Generator: Adobe Illustrator 29.3.0, SVG Export Plug-In . SVG Version: 2.1.0 Build 146)  -->
  <defs>
    <style>
      .st0 {
        fill-rule: evenodd;
      }

      .st0, .st1 {
        fill: #fff;
      }
    </style>
  </defs>
  <g>
    <path class="st1" d="M61.1,199c.8-1.1,1.4-2.5,1.9-4,.5-1.6.7-3.2.7-5v-36.9c0-1.8-.2-3.4-.7-5-.5-1.6-1.1-2.9-1.9-4v-.4h21.7c5.6,0,10.2,1,13.9,3.1,3.7,2.1,5.5,5.4,5.5,9.9s-1.2,6.4-3.7,8.5c-2.4,2.1-5.4,3.4-8.8,4v.2c2.5.3,4.9,1.1,7.1,2.3s4,2.9,5.4,4.9,2.1,4.5,2.1,7.3c0,5.3-2.1,9.2-6.3,11.7-4.2,2.5-9.3,3.7-15.4,3.7h-21.7v-.4ZM80.3,168.5c3.7,0,6.6-1.1,8.8-3.2,2.1-2.1,3.2-4.9,3.2-8.4s-.5-4.1-1.5-5.9c-1-1.7-2.4-3.1-4.3-4.1-1.9-1-4.1-1.5-6.7-1.5s-4.3.4-6.6,1.1v21.9h7ZM80.4,197.5c2.7,0,5.1-.6,7.2-1.7,2.1-1.1,3.7-2.7,4.9-4.8s1.8-4.4,1.8-7.1-.6-5.2-1.7-7.3c-1.1-2-2.8-3.6-4.9-4.7-2.1-1.1-4.5-1.7-7.3-1.7h-7.2v25.8c1.1.5,2.2.8,3.5,1.1,1.3.2,2.5.4,3.7.4Z"/>
    <path class="st1" d="M112.5,199c.7-1,1.2-2.2,1.6-3.6.4-1.4.6-3,.6-4.6v-19.7c0-2-.2-3.6-.7-4.8-.5-1.2-1.1-2.3-2-3.2v-.4l11.2-4h.4v32.2c0,1.6.2,3.2.6,4.6s.9,2.6,1.6,3.6v.4h-13.2v-.4ZM119.1,154.1c-1.5,0-2.8-.5-3.9-1.6-1.1-1.1-1.6-2.4-1.6-3.9s.5-2.8,1.6-3.9c1.1-1.1,2.4-1.6,3.9-1.6s2.8.5,3.9,1.6c1.1,1.1,1.6,2.4,1.6,3.9s-.5,2.8-1.6,3.9-2.4,1.6-3.9,1.6Z"/>
    <g>
      <path class="st1" d="M134.5,199c.7-1,1.2-2.2,1.6-3.6.4-1.4.6-3,.6-4.6v-19.7c0-2-.2-3.6-.7-4.8-.5-1.2-1.1-2.3-2-3.2v-.4l11.2-4h.4v10h.4c.9-3.2,2.5-5.7,4.7-7.4,2.2-1.7,5.2-2.6,9.1-2.6v8.4h-4.2c-3.3,0-5.8.7-7.4,2.2-1.7,1.4-2.5,3.7-2.5,6.9v14.7c0,1.6.2,3.2.6,4.6s.9,2.6,1.6,3.6v.4h-13.2v-.4Z"/>
      <path class="st1" d="M164.7,199c.7-1,1.2-2.2,1.6-3.6.4-1.4.6-3,.6-4.6v-38.3c0-2-.2-3.6-.7-4.8-.5-1.2-1.1-2.3-2-3.2v-.4l11.2-4h.4v50.7c0,1.6.2,3.2.6,4.6s.9,2.6,1.6,3.6v.4h-13.2v-.4Z"/>
      <path class="st1" d="M186.6,199c.7-1,1.2-2.2,1.6-3.6.4-1.4.6-3,.6-4.6v-19.7c0-2-.2-3.6-.7-4.8-.5-1.2-1.1-2.3-2-3.2v-.4l11.2-4h.4v32.2c0,1.6.2,3.2.6,4.6s.9,2.6,1.6,3.6v.4h-13.2v-.4ZM193.2,154.1c-1.5,0-2.8-.5-3.9-1.6-1.1-1.1-1.6-2.4-1.6-3.9s.5-2.8,1.6-3.9c1.1-1.1,2.4-1.6,3.9-1.6s2.8.5,3.9,1.6c1.1,1.1,1.6,2.4,1.6,3.9s-.5,2.8-1.6,3.9-2.4,1.6-3.9,1.6Z"/>
      <path class="st1" d="M208.2,199c.7-1,1.2-2.2,1.6-3.6.4-1.4.6-3,.6-4.6v-38.3c0-2-.2-3.6-.7-4.8-.5-1.2-1.1-2.3-2-3.2v-.4l11.2-4h.4v50.7c0,1.6.2,3.2.6,4.6s.9,2.6,1.6,3.6v.4h-13.2v-.4ZM241.7,199.9c-2.1,0-3.8-.4-5.2-1.2s-2.9-2.1-4.3-4l-11.3-14.3v-.4l10.6-11.6c1.7-1.9,2.7-3.6,2.9-5,.2-1.4-.1-2.6-1.1-3.5v-.4h11.1v.4c-2,.9-3.7,2-5.2,3.2-1.5,1.2-3.3,2.9-5.3,5l-6.2,6.5,15.6,19.8c1.7,2.2,2.9,3.5,3.7,3.7v.5c-.7.4-1.5.7-2.5.9-1,.2-1.9.4-2.8.4Z"/>
      <path class="st1" d="M266.7,199c1.5-1.1,2.7-2.4,3.8-3.9,1-1.5,2-3.2,2.7-5.1l18.3-46.5h4.6l18.2,46.4c.8,2.1,1.6,3.8,2.4,5.1.8,1.3,1.8,2.7,3.1,4v.4h-17v-.4c1-1.1,1.6-2.4,1.9-4,.3-1.6,0-3.3-.7-5.1l-3.7-9.4h-21.1l-3.6,9c-.8,2-1,3.8-.6,5.4s1.2,3,2.5,4.1v.4h-10.8v-.4ZM279.9,178.6h19.8l-9.9-25.4-10,25.4Z"/>
      <path class="st1" d="M325.9,199c.7-1,1.2-2.2,1.6-3.6.4-1.4.6-3,.6-4.6v-38.3c0-2-.2-3.6-.7-4.8-.5-1.2-1.1-2.3-2-3.2v-.4l11.2-4h.4v50.7c0,1.6.2,3.2.6,4.6s.9,2.6,1.6,3.6v.4h-13.2v-.4Z"/>
      <path class="st1" d="M365.6,200.3c-3.8,0-7.2-.9-10.2-2.7-3-1.8-5.3-4.3-7-7.5-1.6-3.2-2.5-6.7-2.5-10.7s.8-7.5,2.5-10.7c1.6-3.2,4-5.7,7-7.5,3-1.8,6.4-2.7,10.2-2.7s7.2.9,10.2,2.7c3,1.8,5.3,4.3,7,7.5,1.6,3.2,2.5,6.7,2.5,10.7s-.8,7.5-2.5,10.7c-1.6,3.2-4,5.7-7,7.5-3,1.8-6.4,2.7-10.2,2.7ZM365.6,198.6c3.3,0,5.8-1.8,7.4-5.3,1.7-3.5,2.5-8.1,2.5-13.8s-.8-10.3-2.5-13.8c-1.7-3.5-4.2-5.3-7.4-5.3s-5.7,1.8-7.4,5.3c-1.7,3.5-2.5,8.1-2.5,13.8s.8,10.3,2.5,13.8c1.7,3.5,4.2,5.3,7.4,5.3Z"/>
      <path class="st1" d="M391.5,167.8c-1.4-3.3-3-5.9-4.9-7.8v-.4h15v.4c-.7,1-1.2,2.1-1.3,3.5-.1,1.4.1,2.9.8,4.5l9.3,22.3,8.9-21.8c.8-1.9,1-3.5.8-5-.3-1.5-.9-2.7-1.8-3.5v-.4h9v.4c-2.3,1.8-4.2,4.3-5.6,7.6l-13.3,31.9h-3.5l-13.5-31.8Z"/>
    </g>
    <path class="st1" d="M447,200.3c-2.5,0-4.7-.6-6.6-1.8-1.9-1.2-3.4-2.8-4.5-4.9-1.1-2.1-1.6-4.5-1.6-7.1v-15.5c0-2-.2-3.6-.6-4.8-.4-1.2-1.1-2.3-2-3.2v-.4l11.1-4h.4v27.8c0,2.5.7,4.5,2.2,6.1,1.5,1.6,3.4,2.4,5.8,2.4s3.1-.4,4.4-1.1c1.4-.7,2.4-1.7,3.3-3,.8-1.3,1.2-2.8,1.2-4.5v-15.4c0-2-.2-3.6-.6-4.8s-1.1-2.3-2-3.2v-.4l11.1-4h.4v30.9c0,2,.2,3.6.7,4.8s1.1,2.2,2,3v.4l-11.2,2.6h-.4v-8h-.4c-1.1,2.3-2.7,4.2-4.9,5.7-2.2,1.5-4.8,2.2-7.8,2.2Z"/>
  </g>
  <g>
    <path class="st1" d="M145.8,239.1l-.2-1.4h0c-.2.3-.5.6-.9.8-.8.5-1.7.8-2.8.8-1.7,0-3.2-.6-4.3-1.8-1.2-1.2-1.8-2.8-1.8-4.6s.6-3.4,1.8-4.6c1.2-1.2,2.6-1.8,4.3-1.8s1.6.1,2.2.4c.7.3,1.3.6,1.7,1.1.5.5.8.9,1.1,1.4.3.5.5,1,.6,1.5h-2.4c-.7-1.5-1.8-2.2-3.2-2.2s-2,.4-2.7,1.2c-.7.8-1.1,1.8-1.1,3.1s.4,2.3,1.1,3.1c.7.8,1.6,1.2,2.7,1.2s1.1-.1,1.5-.3.8-.5,1.1-.7c.3-.3.5-.6.6-.9.1-.3.2-.5.2-.8h0c0,0-3.1,0-3.1,0v-1.8h5.5v6.6h-1.8Z"/>
    <path class="st1" d="M152.1,239.1v-12.6h5.8c1.1,0,2.1.4,2.8,1.2s1.1,1.8,1.1,3-.4,2.1-1.1,2.9c-.7.7-1.6,1.1-2.6,1.2l4,4.3h-3l-4-4.3h-.7v4.3h-2.3ZM154.4,232.6h3.3c.5,0,.9-.2,1.2-.5.3-.4.5-.8.5-1.3s-.2-1-.5-1.4c-.3-.4-.7-.6-1.2-.6h-3.3v3.9Z"/>
    <path class="st1" d="M166.9,228.2c1.2-1.2,2.6-1.8,4.3-1.8s3.2.6,4.3,1.8,1.8,2.8,1.8,4.6-.6,3.4-1.8,4.6-2.6,1.8-4.3,1.8-3.2-.6-4.3-1.8c-1.2-1.2-1.8-2.8-1.8-4.6s.6-3.4,1.8-4.6ZM168.5,235.9c.7.8,1.6,1.2,2.7,1.2s2-.4,2.7-1.2c.7-.8,1.1-1.8,1.1-3.1s-.4-2.3-1.1-3.1c-.7-.8-1.6-1.2-2.7-1.2s-2,.4-2.7,1.2c-.7.8-1.1,1.8-1.1,3.1s.4,2.3,1.1,3.1Z"/>
    <path class="st1" d="M181.2,234v-7.5h2.3v7.5c0,.9.3,1.6.8,2.2.6.6,1.2.9,2,.9s1.5-.3,2-.9.8-1.3.8-2.2v-7.5h2.3v7.5c0,1.6-.5,2.9-1.4,3.9s-2.2,1.4-3.8,1.4-2.8-.5-3.8-1.4c-.9-1-1.4-2.2-1.4-3.9Z"/>
    <path class="st1" d="M196.2,239.1v-12.6h5.7c1.2,0,2.1.4,2.9,1.1.7.8,1.1,1.8,1.1,3.1s-.4,2.3-1.1,3.1c-.7.8-1.7,1.2-2.9,1.2h-3.3v4.1h-2.3ZM198.5,232.7h3.2c.5,0,.9-.2,1.2-.5.3-.3.5-.8.5-1.5s-.2-1.1-.5-1.5-.7-.5-1.2-.5h-3.2v4Z"/>
    <path class="st1" d="M209.4,233.7v-2.1h6.1v2.1h-6.1Z"/>
    <path class="st1" d="M221.4,239.1l-3.1-12.6h2.6l2.2,8.8h.4l2.2-8.8h2.7l2.2,8.8h.4l2.2-8.8h2.6l-3.1,12.6h-3.2l-2.2-8.6h-.4l-2.2,8.6h-3.2Z"/>
    <path class="st1" d="M239,239.1v-12.6h2.3v12.6h-2.3Z"/>
    <path class="st1" d="M246,239.1v-12.6h4.6c1.7,0,3.2.6,4.3,1.8,1.2,1.2,1.8,2.7,1.8,4.5s-.6,3.3-1.8,4.5c-1.2,1.2-2.6,1.8-4.3,1.8h-4.6ZM248.3,236.8h2.2c1.1,0,2-.4,2.7-1.1.7-.7,1.1-1.7,1.1-2.9s-.4-2.2-1.1-2.9c-.7-.7-1.6-1.1-2.7-1.1h-2.2v8.1Z"/>
    <path class="st1" d="M260.7,239.1v-12.6h8.4v2.2h-6.1v3.1h5.8v2.2h-5.8v3.1h6.1v2.2h-8.4Z"/>
    <path class="st1" d="M282.3,239.1v-10.3h-3.8v-2.2h9.9v2.2h-3.8v10.3h-2.3Z"/>
    <path class="st1" d="M292.8,228.2c1.2-1.2,2.6-1.8,4.3-1.8s3.2.6,4.3,1.8,1.8,2.8,1.8,4.6-.6,3.4-1.8,4.6-2.6,1.8-4.3,1.8-3.2-.6-4.3-1.8c-1.2-1.2-1.8-2.8-1.8-4.6s.6-3.4,1.8-4.6ZM294.5,235.9c.7.8,1.6,1.2,2.7,1.2s2-.4,2.7-1.2c.7-.8,1.1-1.8,1.1-3.1s-.4-2.3-1.1-3.1c-.7-.8-1.6-1.2-2.7-1.2s-2,.4-2.7,1.2c-.7.8-1.1,1.8-1.1,3.1s.4,2.3,1.1,3.1Z"/>
    <path class="st1" d="M309,239.1l-3.1-12.6h2.6l2.2,8.8h.4l2.2-8.8h2.7l2.2,8.8h.4l2.2-8.8h2.6l-3.1,12.6h-3.2l-2.2-8.6h-.4l-2.2,8.6h-3.2Z"/>
    <path class="st1" d="M326.6,239.1v-12.6h3.1l4.6,8.7h.4v-8.7h2.3v12.6h-3.1l-4.6-8.7h-.4v8.7h-2.3Z"/>
    <path class="st1" d="M347.8,239.1v-12.6h2.3v5h5.7v-5h2.3v12.6h-2.3v-5.2h-5.7v5.2h-2.3Z"/>
    <path class="st1" d="M361.4,239.1l4.5-12.6h3.4l4.5,12.6h-2.6l-1-2.7h-5.3l-1,2.7h-2.6ZM365.7,234.2h3.8l-1.7-5h-.4l-1.7,5Z"/>
    <path class="st1" d="M377.1,239.1v-12.6h2.3v10.3h5.9v2.2h-8.3Z"/>
    <path class="st1" d="M388.7,239.1v-12.6h2.3v10.3h5.9v2.2h-8.3Z"/>
  </g>
  <g>
    <g>
      <polygon class="st0" points="197.9 52.4 197.9 42.3 214.4 42.3 214.4 58.8 210.7 58.8 201.6 49.7 201.2 49.2 197.9 52.4"/>
      <polygon class="st0" points="189.5 62.6 201.2 51 212.8 62.6 210.2 65.3 196.7 65.3 196.7 69.8 189.5 62.6"/>
      <polygon class="st0" points="197.9 83 208.1 83 205.3 80.2 204.9 79.8 214.4 70.2 214.4 66.5 197.9 66.5 197.9 83"/>
      <polygon class="st0" points="218.3 91.4 206.7 79.8 218.3 68.1 220.9 70.8 220.9 84.3 225.5 84.3 218.3 91.4"/>
      <polygon class="st0" points="238.7 83 222.2 83 222.2 66.5 225.9 66.5 235 75.6 235.5 76.1 235.9 75.6 238.7 72.9 238.7 83"/>
      <polygon class="st0" points="247.1 62.6 235.5 74.2 223.8 62.6 226.4 60 239.9 60 239.9 55.4 247.1 62.6"/>
      <polygon class="st0" points="238.7 42.3 238.7 58.8 222.2 58.8 222.2 55 231.3 45.9 231.7 45.5 231.3 45.1 228.5 42.3 238.7 42.3"/>
      <polygon class="st0" points="230 45.5 218.3 57.2 215.7 54.5 215.7 41 211.1 41 218.3 33.9 230 45.5"/>
    </g>
    <path class="st0" d="M260.5,51c2.5,0,3.4-1.3,3.4-2.8s-.7-2.8-2.8-2.8h-1.9v5.7h1.4ZM255.2,42.2h6.4c3.7,0,6.4,2.2,6.4,5.8s-2.7,6-7.6,6h-1.2v4.7h-4v-16.5Z"/>
    <path class="st0" d="M284.7,57.8l1.1-2.8c1.5.5,2.5.7,4.4.7s2.9-.6,2.9-1.6c0-2.7-7.8-2-7.8-7.5s3-4.5,5.9-4.5,3.9.6,5.1,1.1l-1.1,2.7c-1.2-.3-2.2-.7-3.9-.7s-2.2.6-2.2,1.3c0,2.2,8,2.2,8,7.4s-3.4,5-6.8,5-4.3-.5-5.5-1.2Z"/>
    <polygon class="st0" points="299.1 42.2 303.1 42.2 303.1 48.9 309.6 48.9 309.6 42.2 313.5 42.2 313.5 58.7 309.6 58.7 309.6 51.9 303.1 51.9 303.1 58.7 299.1 58.7 299.1 42.2"/>
    <path class="st0" d="M321.6,51l1.7-6.3,1.7,6.3h-3.3ZM325.9,42.2h-5.4l-5.5,16.5h4.1l1.6-4.8h5.2l1.6,4.8h4.1l-5.5-16.5Z"/>
    <path class="st0" d="M274,51l1.7-6.3,1.7,6.3h-3.3ZM278.3,42.2h-5.4l-5.5,16.5h4.1l1.6-4.8h5.2l1.6,4.8h4.1l-5.5-16.5Z"/>
    <path class="st0" d="M314.9,70h4v1.3c.8-.6,2.5-1.6,4.2-1.6,4.1,0,4.4,2.2,4.4,5.2v8.1h-3.9v-7.8c0-1.8-.4-2.1-1.7-2.1s-2.3.4-2.9.7v9.2h-4v-13Z"/>
    <path class="st0" d="M272.2,76.6c0-4.1,2.5-6.6,6.4-6.6s6.3,2.5,6.3,6.5-2.7,6.5-6.5,6.5-6.2-2.5-6.2-6.4h0ZM281.1,76.5c0-2-.5-3.5-2.6-3.5s-2.6,1.5-2.6,3.5.6,3.4,2.6,3.4,2.5-1.3,2.5-3.5Z"/>
    <path class="st0" d="M308.9,64.4h3.6s0,3.7,0,3.7h-3.7s0-3.7,0-3.7h0ZM308.8,70.2h3.9v12.8h-3.9v-12.8Z"/>
    <polygon class="st0" points="255.1 66.6 259.1 66.6 259.1 73.3 265.5 73.3 265.5 66.6 269.4 66.6 269.4 83 265.5 83 265.5 76.2 259.1 76.2 259.1 83 255.1 83 255.1 66.6"/>
    <path class="st0" d="M343.3,72.8h-2c0,.3.1,1.2.1,1.5,0,2.8-2.7,4.3-5.7,4.3s-1.6,0-2.4-.2v1.2s3.4,0,3.4,0c3.7,0,5.6,1.1,5.6,4s-2.2,5-6.8,5-6.2-1-6.2-3.5.9-2,1.8-2.5c-.7-.4-1-1.3-1-1.9,0-1.1.9-2.5,1.4-3-.9-.6-1.7-1.9-1.7-3.5,0-2.7,2.2-4.8,5.7-4.8s2.9.4,3.4.7l4.3-.3v2.9h0ZM339.2,84.2h0c0-.9-.9-1.2-2-1.2h-4.1c-.2.5-.3,1-.3,1.3,0,.9,1.1,1.5,3.4,1.5s3-.7,3-1.6h0ZM337.7,74.2h0c0-1.1-.7-2.1-2.1-2.1s-2.2.9-2.2,2.2.7,2,2.2,2,2.1-1,2.1-2.1Z"/>
    <path class="st0" d="M293.7,76.4c0-4.4,3.1-6.5,7-6.5s1.3,0,1.7.1v-4.7h3.9v17.7h-3.9v-.9c-.6.4-1.3,1.1-2.9,1.1-2.6,0-5.7-1.2-5.7-6.8h0ZM302.3,79.6h0v-6.4c-.4,0-.9-.2-1.6-.2-2.2,0-3.1,1.3-3.1,3.5s1.2,3.5,2.6,3.5,1.5-.2,2.1-.4Z"/>
    <rect class="st1" x="287.5" y="65.4" width="4" height="17.6"/>
  </g>
</svg>